<svg width="21" height="24" viewBox="0 0 21 24" fill="none" xmlns="http://www.w3.org/2000/svg">
<path d="M17.8376 11.9461L11.6582 4.88368C11.4818 4.68208 11.2467 4.57143 10.996 4.57143C10.7451 4.57143 10.5101 4.68224 10.3337 4.88368L9.77265 5.52503C9.5964 5.72631 9.49929 5.99516 9.49929 6.28181C9.49929 6.56831 9.5964 6.84622 9.77265 7.04749L13.3776 11.1766H1.92441C1.40802 11.1766 1 11.6386 1 12.2289V13.1356C1 13.7259 1.40802 14.2345 1.92441 14.2345H13.4185L9.77279 18.3866C9.59653 18.5882 9.49943 18.8498 9.49943 19.1364C9.49943 19.4227 9.59653 19.6881 9.77279 19.8895L10.3338 20.5288C10.5102 20.7304 10.7452 20.8403 10.9962 20.8403C11.2468 20.8403 11.4819 20.729 11.6583 20.5274L17.8378 13.4652C18.0146 13.2629 18.1118 12.993 18.1111 12.706C18.1117 12.4181 18.0146 12.148 17.8376 11.9461Z" fill="#8C52E5"/>
</svg>
