<svg width="31" height="31" viewBox="0 0 31 31" fill="none" xmlns="http://www.w3.org/2000/svg">
<path d="M25.6407 15.3639L17.045 6.76795C16.7996 6.52258 16.4726 6.38789 16.1239 6.38789C15.7748 6.38789 15.448 6.52277 15.2026 6.76795L14.4222 7.54857C14.177 7.79355 14.0419 8.12078 14.0419 8.46968C14.0419 8.81838 14.177 9.15664 14.4222 9.40162L19.4368 14.4273H3.50508C2.78677 14.4273 2.21921 14.9896 2.21921 15.7081V16.8117C2.21921 17.5302 2.78677 18.1493 3.50508 18.1493H19.4937L14.4224 23.203C14.1772 23.4484 14.0421 23.7667 14.0421 24.1156C14.0421 24.4641 14.1772 24.7871 14.4224 25.0322L15.2028 25.8103C15.4481 26.0557 15.775 26.1894 16.1241 26.1894C16.4728 26.1894 16.7998 26.054 17.0452 25.8086L25.6409 17.2129C25.8869 16.9667 26.0221 16.6381 26.0212 16.2889C26.0219 15.9384 25.8869 15.6096 25.6407 15.3639Z" fill="#9B9B9B"/>
</svg>
