<svg width="27" height="26" viewBox="0 0 27 26" fill="none" xmlns="http://www.w3.org/2000/svg">
<path d="M22.9789 12.9416L15.3282 5.29065C15.1098 5.07226 14.8187 4.95238 14.5084 4.95238C14.1976 4.95238 13.9067 5.07243 13.6883 5.29065L12.9937 5.98545C12.7755 6.20351 12.6553 6.49476 12.6553 6.8053C12.6553 7.11567 12.7755 7.41674 12.9937 7.63479L17.457 12.1079H3.27683C2.63749 12.1079 2.13232 12.6085 2.13232 13.248V14.2302C2.13232 14.8697 2.63749 15.4207 3.27683 15.4207H17.5077L12.9939 19.9189C12.7757 20.1372 12.6554 20.4206 12.6554 20.7311C12.6554 21.0413 12.7757 21.3288 12.9939 21.547L13.6885 22.2396C13.9069 22.458 14.1978 22.577 14.5085 22.577C14.8189 22.577 15.11 22.4564 15.3284 22.238L22.9791 14.5873C23.198 14.3682 23.3184 14.0757 23.3175 13.7648C23.3182 13.4529 23.198 13.1603 22.9789 12.9416Z" fill="white"/>
</svg>
