<svg width="31" height="32" viewBox="0 0 31 32" fill="none" xmlns="http://www.w3.org/2000/svg">
<path d="M2.90723 12H24.5866L22.2234 14.4393C21.9509 14.7206 21.7978 15.1022 21.7978 15.5C21.7978 15.8978 21.9509 16.2794 22.2234 16.5607C22.496 16.842 22.8656 17 23.251 17C23.6364 17 24.006 16.842 24.2785 16.5607L29.1223 11.5607C29.2572 11.4214 29.3643 11.256 29.4373 11.074C29.5103 10.8921 29.5479 10.697 29.5479 10.5C29.5479 10.303 29.5103 10.108 29.4373 9.92596C29.3643 9.74397 29.2572 9.57861 29.1223 9.43932L24.2785 4.43932C24.006 4.15801 23.6364 3.99997 23.251 3.99997C22.8656 3.99997 22.496 4.15801 22.2234 4.43932C21.9509 4.72063 21.7978 5.10217 21.7978 5.50001C21.7978 5.89784 21.9509 6.27938 22.2234 6.56069L24.5866 9.00001H2.90723C2.52183 9.00001 2.15223 9.15804 1.87971 9.43935C1.6072 9.72065 1.4541 10.1022 1.4541 10.5C1.4541 10.8978 1.6072 11.2794 1.87971 11.5607C2.15223 11.842 2.52183 12 2.90723 12Z" fill="white"/>
<path d="M28.0938 20H6.41445L8.77759 17.5607C9.05011 17.2794 9.20321 16.8978 9.20321 16.5C9.20321 16.1022 9.05011 15.7206 8.77759 15.4393C8.50507 15.158 8.13545 15 7.75005 15C7.36465 15 6.99503 15.158 6.72251 15.4393L1.87876 20.4393C1.74382 20.5786 1.63678 20.744 1.56374 20.926C1.49071 21.108 1.45312 21.303 1.45312 21.5C1.45313 21.697 1.49071 21.8921 1.56374 22.0741C1.63678 22.256 1.74382 22.4214 1.87876 22.5607L6.72251 27.5607C6.99503 27.842 7.36465 28.0001 7.75005 28.0001C8.13545 28.0001 8.50507 27.842 8.77759 27.5607C9.05011 27.2794 9.20321 26.8978 9.20321 26.5C9.20321 26.1022 9.05011 25.7206 8.77759 25.4393L6.41445 23H28.0938C28.4792 23 28.8488 22.842 29.1213 22.5607C29.3938 22.2794 29.5469 21.8978 29.5469 21.5C29.5469 21.1022 29.3938 20.7207 29.1213 20.4394C28.8488 20.158 28.4792 20 28.0938 20Z" fill="white"/>
</svg>
